Coordinates
version=1
nRows=10
nColumns=40
inDegrees=yes

Units are S.I. units (second, meters, Newtons, ...)
If the header above contains a line with 'inDegrees', this indicates whether rotational values are in degrees (yes) or radians (no).

endheader
time	pelvis_tilt	pelvis_list	pelvis_rotation	pelvis_tx	pelvis_ty	pelvis_tz	hip_flexion_r	hip_adduction_r	hip_rotation_r	knee_angle_r	knee_angle_r_beta	ankle_angle_r	subtalar_angle_r	mtp_angle_r	hip_flexion_l	hip_adduction_l	hip_rotation_l	knee_angle_l	knee_angle_l_beta	ankle_angle_l	subtalar_angle_l	mtp_angle_l	lumbar_extension	lumbar_bending	lumbar_rotation	arm_flex_r	arm_add_r	arm_rot_r	elbow_flex_r	pro_sup_r	wrist_flex_r	wrist_dev_r	arm_flex_l	arm_add_l	arm_rot_l	elbow_flex_l	pro_sup_l	wrist_flex_l	wrist_dev_l
      8.28300000	      7.78453760	      2.40936503	    -11.36935080	      0.05333431	      1.31482555	      0.01212096	     50.50125206	    -16.67926661	     -2.54559147	     97.31857683	      1.69852959	     -2.03902614	    -17.42177999	      0.00000000	     36.21835334	    -18.69822794	    -26.88250968	     46.94014907	      0.81926015	    -17.26548658	      5.32539296	      0.00000000	    -59.96900437	     -1.64701270	     -5.31960649	     58.81247525	    -12.67159360	    -17.60614999	     41.54491264	     87.18653220	      0.00000000	      0.00000000	     59.75908617	     -1.98865652	    -21.79429621	     51.99771726	     87.67962948	      0.00000000	      0.00000000
      8.30000000	      7.21377210	      1.94030842	    -12.73068779	      0.05268065	      1.31331624	      0.01265569	     55.49210843	    -16.44358126	     -1.09419153	    101.21855333	      1.76659702	      0.44704214	    -16.47689766	      0.00000000	     32.16642369	    -18.86754758	    -29.57158371	     42.90642635	      0.74885841	    -20.08482501	      5.87745087	      0.00000000	    -59.39925727	     -2.14382942	     -4.38350544	     59.16196213	    -12.39522313	    -17.19711068	     41.63324986	     87.17525814	      0.00000000	      0.00000000	     59.18206591	     -2.36080348	    -22.07542027	     52.82628036	     87.65417693	      0.00000000	      0.00000000
      8.31700000	      6.78770763	      1.92716575	    -13.81566911	      0.05218596	      1.31197967	      0.01338257	     60.18741551	    -16.44374475	      0.50004511	    103.30904170	      1.80308292	      2.56476151	    -15.13891415	      0.00000000	     28.85178203	    -18.77986627	    -31.43091785	     40.46717313	      0.70628541	    -22.04273949	      6.22130096	      0.00000000	    -58.93425391	     -2.92389550	     -3.75495853	     59.16860937	    -12.06959005	    -17.51383348	     41.76740552	     87.17918266	      0.00000000	      0.00000000	     58.89176936	     -2.28247284	    -22.33261561	     53.32242100	     87.68802234	      0.00000000	      0.00000000
      8.33300000	      6.36099189	      1.96285594	    -14.40708489	      0.05184169	      1.31088500	      0.01387731	     64.40733889	    -16.76137254	      1.55901926	    103.78598177	      1.81140710	      4.24064655	    -13.85727287	      0.00000000	     26.28650898	    -18.73696467	    -32.28587410	     39.35607186	      0.68689303	    -23.46317634	      6.46435631	      0.00000000	    -58.53335551	     -3.44803009	     -3.29007937	     59.05030167	    -11.78476169	    -18.08990035	     41.91178591	     87.11217903	      0.00000000	      0.00000000	     58.81311612	     -1.97187133	    -22.54605177	     53.58345787	     87.66314604	      0.00000000	      0.00000000
      8.35000000	      6.11584162	      1.92525591	    -14.76121091	      0.05194570	      1.31029992	      0.01451098	     67.48412926	    -17.03848142	      2.08445755	    102.79550090	      1.79411995	      5.25465603	    -12.51132822	      0.00000000	     24.39318485	    -18.81679526	    -32.17379770	     39.61057860	      0.69133502	    -23.60922888	      5.92102854	      0.00000000	    -58.46161732	     -3.87385285	     -2.79767253	     58.83699721	    -11.72138173	    -18.70679950	     42.17804761	     87.07365935	      0.00000000	      0.00000000	     59.11044675	     -1.66573240	    -22.44862938	     53.51748272	     87.67487179	      0.00000000	      0.00000000
      8.36700000	      5.90432085	      1.64477393	    -14.74301016	      0.05278133	      1.31015076	      0.01471778	     69.35231017	    -17.41454003	      1.69231946	    100.24059072	      1.74952835	      5.55283578	    -11.47126642	      0.00000000	     23.38575715	    -19.12024872	    -30.83524850	     41.26673857	      0.72024046	    -22.35062480	      4.50388226	      0.00000000	    -58.72234089	     -3.93304562	     -2.05864095	     58.55676076	    -12.14024113	    -19.20559044	     42.80169748	     87.13109687	      0.00000000	      0.00000000	     59.97240241	     -1.28804194	    -21.91542647	     52.89390001	     87.72690426	      0.00000000	      0.00000000
      8.38300000	      5.61716175	      1.16473428	    -14.44219865	      0.05385670	      1.31030980	      0.01478291	     70.09637199	    -17.76048156	      0.52884969	     96.18485870	      1.67874247	      5.05109969	    -10.78730719	      0.00000000	     23.38702170	    -19.72698278	    -28.34042229	     44.33070488	      0.77371676	    -20.11299736	      2.45307503	      0.00000000	    -59.09888106	     -3.72900336	     -1.13128377	     58.23581972	    -12.86009853	    -19.67404546	     43.52103705	     87.15955686	      0.00000000	      0.00000000	     61.22012903	     -0.82647407	    -21.17520293	     51.84655154	     87.74099312	      0.00000000	      0.00000000
      8.40000000	      5.44289008	      0.82603302	    -13.98307965	      0.05471802	      1.31083967	      0.01489162	     69.49708103	    -18.21427301	     -0.90086625	     91.15893301	      1.59102352	      3.71633411	    -10.29474790	      0.00000000	     24.24192924	    -20.32188187	    -25.30119810	     48.48200626	      0.84617064	    -17.52308048	      0.65601185	      0.00000000	    -59.50357384	     -3.46090136	     -0.68063385	     58.01198846	    -13.30043036	    -20.09149455	     44.11382856	     87.17702927	      0.00000000	      0.00000000	     62.12653618	     -0.58534317	    -20.56498441	     51.28130553	     87.71187818	      0.00000000	      0.00000000
      8.41700000	      5.61572290	      0.81220655	    -13.67052182	      0.05533454	      1.31178480	      0.01552868	     67.26589716	    -18.57007547	     -2.21940436	     85.05442139	      1.48447970	      2.10963048	     -9.41283247	      0.00000000	     25.70503403	    -20.77156622	    -22.10811838	     53.96276189	      0.94182787	    -14.26807036	     -0.86036221	      0.00000000	    -59.99786631	     -3.46346121	     -0.96968373	     57.98762358	    -13.09970286	    -20.48790390	     44.32662616	     87.13005049	      0.00000000	      0.00000000	     62.39897148	     -0.78767483	    -20.16911923	     51.45979990	     87.67389535	      0.00000000	      0.00000000
      8.43300000	      5.78228297	      0.86523701	    -13.02278235	      0.05583533	      1.31269124	      0.01586754	     63.76916164	    -19.12419725	     -4.01485525	     77.87181259	      1.35911952	     -0.21258571	     -8.35907875	      0.00000000	     28.27725308	    -21.04340960	    -18.15280200	     60.50916443	      1.05608415	    -10.93580903	     -1.92351408	      0.00000000	    -60.38232951	     -3.14115428	     -1.73641709	     58.07420965	    -12.65553989	    -20.72249998	     44.40797669	     87.09940025	      0.00000000	      0.00000000	     62.28258704	     -1.24808109	    -19.98140095	     52.07563519	     87.62200251	      0.00000000	      0.00000000
